Coordinates
version=1
nRows=13
nColumns=38
inDegrees=no

Units are S.I. units (second, meters, Newtons, ...)
If the header above contains a line with 'inDegrees', this indicates whether rotational values are in degrees (yes) or radians (no).

endheader
time	pelvis_tilt	pelvis_list	pelvis_rotation	pelvis_tx	pelvis_ty	pelvis_tz	hip_flexion_r	hip_adduction_r	hip_rotation_r	knee_angle_r	ankle_angle_r	subtalar_angle_r	mtp_angle_r	hip_flexion_l	hip_adduction_l	hip_rotation_l	knee_angle_l	ankle_angle_l	subtalar_angle_l	mtp_angle_l	lumbar_extension	lumbar_bending	lumbar_rotation	arm_flex_r	arm_add_r	arm_rot_r	elbow_flex_r	pro_sup_r	wrist_flex_r	wrist_dev_r	arm_flex_l	arm_add_l	arm_rot_l	elbow_flex_l	pro_sup_l	wrist_flex_l	wrist_dev_l
50	0.725143	1.43184	0.765139	0.654931	0.47982	0.790244	0.863102	-0.0415457	-0.0969512	1.41294	0.479202	0	0	0.886015	-0.0860502	0.0260801	1.49754	0.523599	0	0	-0.455234	0.216213	0.060415	0.415842	-0.310611	0.183778	0.480729	1.5708	0	0	-0.0767799	-0.279602	0.347671	0.843541	1.02702	0	0
50.01	0.74235	1.43298	0.747426	0.654975	0.480367	0.786778	0.866656	-0.0432014	-0.0983928	1.42587	0.485912	0	0	0.890054	-0.0883784	0.0258435	1.51106	0.523599	0	0	-0.458064	0.217188	0.0601769	0.412777	-0.311634	0.177804	0.484372	1.5708	0	0	-0.0712016	-0.280385	0.364203	0.83146	0.999998	0	0
50.02	0.754905	1.43702	0.738753	0.655823	0.480726	0.783732	0.868088	-0.0444833	-0.0989897	1.43798	0.490243	0	0	0.895855	-0.103389	0.028309	1.52622	0.523599	0	0	-0.462353	0.214542	0.0552524	0.411648	-0.310568	0.177732	0.484568	1.5708	0	0	-0.0684216	-0.279823	0.361081	0.822169	1.01795	0	0
50.03	0.770353	1.43851	0.722736	0.655885	0.481316	0.780566	0.871091	-0.0458305	-0.0995077	1.45022	0.496184	0	0	0.89911	-0.105506	0.0276716	1.5383	0.523599	0	0	-0.464952	0.214532	0.0535577	0.411235	-0.311386	0.177032	0.484455	1.5708	0	0	-0.0655394	-0.279192	0.367408	0.812396	1.01262	0	0
50.04	0.783897	1.44001	0.708628	0.655952	0.481955	0.777534	0.874227	-0.0471963	-0.0997211	1.46234	0.501538	0	0	0.902114	-0.107391	0.0268434	1.54978	0.523599	0	0	-0.467093	0.214228	0.0515523	0.41117	-0.312205	0.177167	0.483671	1.5708	0	0	-0.0632186	-0.278725	0.373203	0.80362	1.00685	0	0
50.05	0.795196	1.44138	0.696908	0.656031	0.48257	0.774632	0.877466	-0.0484804	-0.0995116	1.47364	0.506395	0	0	0.905165	-0.108975	0.0259245	1.56038	0.523599	0	0	-0.468642	0.213782	0.0493611	0.411276	-0.313123	0.178083	0.482595	1.5708	0	0	-0.0613923	-0.278442	0.378484	0.795936	1.00048	0	0
50.06	0.803962	1.44264	0.687838	0.656092	0.483208	0.771833	0.880863	-0.049773	-0.0991701	1.48442	0.510901	0	0	0.908268	-0.110193	0.0250983	1.57065	0.523599	0	0	-0.469642	0.213135	0.0471657	0.4113	-0.314183	0.179521	0.481593	1.5708	0	0	-0.0600441	-0.278502	0.383367	0.788954	0.994414	0	0
50.07	0.811035	1.44399	0.680558	0.656148	0.483806	0.769163	0.884116	-0.0510991	-0.0986289	1.49473	0.515396	0	0	0.911136	-0.110975	0.0242438	1.5802	0.523599	0	0	-0.470556	0.21217	0.0451074	0.411258	-0.315254	0.180259	0.480976	1.5708	0	0	-0.0588628	-0.278807	0.387406	0.783416	0.989182	0	0
50.08	0.815562	1.44538	0.675533	0.656228	0.48436	0.766623	0.887305	-0.0519905	-0.0973146	1.50436	0.520076	0	0	0.913823	-0.111674	0.0230585	1.5889	0.523599	0	0	-0.471253	0.210839	0.0433299	0.411047	-0.316103	0.178624	0.480975	1.5708	0	0	-0.0578104	-0.279206	0.390638	0.778784	0.985003	0	0
50.09	0.819261	1.44677	0.671038	0.656321	0.484908	0.76424	0.890372	-0.0524456	-0.0954845	1.51308	0.521871	0	0	0.916258	-0.112449	0.0217362	1.59685	0.523599	0	0	-0.471903	0.209343	0.0419327	0.411005	-0.316917	0.176241	0.481038	1.5708	0	0	-0.0567891	-0.279642	0.393407	0.774886	0.981749	0	0
50.1	0.823294	1.44794	0.666225	0.656409	0.485462	0.76202	0.893136	-0.0524803	-0.0936774	1.52107	0.522442	0	0	0.91853	-0.113136	0.0207714	1.60451	0.523599	0	0	-0.472582	0.208027	0.0408447	0.411072	-0.3178	0.173513	0.481151	1.5708	0	0	-0.0558983	-0.279973	0.395167	0.771881	0.979122	0	0
50.11	0.827893	1.44887	0.66094	0.656495	0.486002	0.759957	0.895634	-0.0521469	-0.0919369	1.52854	0.522976	0	0	0.920642	-0.113742	0.0200977	1.61176	0.523599	0	0	-0.473284	0.206895	0.040129	0.411211	-0.318937	0.171086	0.481132	1.5708	0	0	-0.0550441	-0.280202	0.396231	0.769431	0.976683	0	0
50.12	0.832692	1.44982	0.655493	0.65648	0.486534	0.758034	0.897951	-0.0515711	-0.0900109	1.53573	0.523454	0	0	0.9224	-0.114339	0.0194085	1.61848	0.523599	0	0	-0.473963	0.205729	0.0396811	0.41153	-0.320156	0.169441	0.480572	1.5708	0	0	-0.0541973	-0.280471	0.396936	0.767144	0.974628	0	0
